<?xml version="1.0" standalone="no"?>
<!DOCTYPE svg PUBLIC "-//W3C//DTD SVG 20010904//EN"
 "http://www.w3.org/TR/2001/REC-SVG-20010904/DTD/svg10.dtd">
<svg version="1.0" xmlns="http://www.w3.org/2000/svg"
 width="180.000000pt" height="180.000000pt" viewBox="0 0 180.000000 180.000000"
 preserveAspectRatio="xMidYMid meet">

<g transform="translate(0.000000,180.000000) scale(0.100000,-0.100000)"
fill="#000000" stroke="none">
<path d="M0 900 l0 -900 900 0 900 0 0 900 0 900 -900 0 -900 0 0 -900z m494
495 c90 -19 149 -55 181 -109 70 -119 25 -271 -96 -329 l-52 -25 34 -7 c49
-11 120 -49 151 -82 38 -40 50 -78 50 -159 0 -83 -22 -142 -72 -192 -79 -80
-171 -102 -422 -102 l-188 0 0 510 0 510 173 0 c112 0 196 -5 241 -15z m636
-241 c0 -142 4 -254 9 -252 5 2 46 48 92 104 218 262 333 396 344 400 7 3 40
4 74 2 l62 -3 -160 -192 -159 -193 147 -257 c81 -142 162 -284 180 -315 l32
-58 -70 0 -70 0 -39 68 c-22 37 -88 155 -147 262 -60 107 -109 196 -110 198
-2 2 -44 -45 -94 -104 l-91 -108 0 -158 0 -158 -65 0 -65 0 0 510 0 510 65 0
65 0 0 -256z"/>
<path d="M212 1143 l3 -168 113 2 c132 2 190 23 230 83 20 30 23 45 20 99 -4
58 -7 67 -39 96 -42 38 -118 55 -248 55 l-81 0 2 -167z"/>
<path d="M210 685 l0 -195 108 0 c117 0 207 18 252 50 45 32 73 101 68 166
-10 123 -104 174 -320 174 l-108 0 0 -195z"/>
</g>
</svg>
